<svg width="16" height="17" viewBox="0 0 16 17" fill="none" xmlns="http://www.w3.org/2000/svg">
<path d="M0.5 10.5411C0.776142 10.5411 1 10.765 1 11.0411V13.5411C1 14.0934 1.44772 14.5411 2 14.5411H14C14.5523 14.5411 15 14.0934 15 13.5411V11.0411C15 10.765 15.2239 10.5411 15.5 10.5411C15.7761 10.5411 16 10.765 16 11.0411V13.5411C16 14.6457 15.1046 15.5411 14 15.5411H2C0.895431 15.5411 0 14.6457 0 13.5411V11.0411C0 10.765 0.223858 10.5411 0.5 10.5411Z" fill="white"/>
<path d="M7.64645 12.4947C7.84171 12.6899 8.15829 12.6899 8.35355 12.4947L11.3536 9.49467C11.5488 9.2994 11.5488 8.98282 11.3536 8.78756C11.1583 8.5923 10.8417 8.5923 10.6464 8.78756L8.5 10.934V2.14111C8.5 1.86497 8.27614 1.64111 8 1.64111C7.72386 1.64111 7.5 1.86497 7.5 2.14111V10.934L5.35355 8.78756C5.15829 8.5923 4.84171 8.5923 4.64645 8.78756C4.45118 8.98282 4.45118 9.2994 4.64645 9.49467L7.64645 12.4947Z" fill="white"/>
</svg>
