<?xml version="1.0" encoding="UTF-8"?><svg id="a" xmlns="http://www.w3.org/2000/svg" viewBox="0 0 32 31.998"><path d="m31.66,26.601c-.218-.471-.499-.907-.755-1.357-.634-1.115-1.278-2.224-1.917-3.337-.621-1.082-1.241-2.165-1.862-3.248-.195-.34-.394-.679-.585-1.021-.11-.198-.11-.166.062-.27.154-.093.301-.198.429-.324.844-.836,1.232-1.844,1.101-3.032-.094-.849-.486-1.55-1.127-2.11-.592-.517-1.143-1.074-1.635-1.687-.711-.885-1.299-1.844-1.756-2.884-.303-.688-.53-1.403-.781-2.11-.089-.25-.169-.504-.282-.745-.394-.842-.989-1.503-1.788-1.979-.55-.327-1.145-.535-1.779-.597-.495-.048-.998-.057-1.486.092-.069.021-.125.004-.186-.038-.673-.465-1.407-.791-2.207-.972-.462-.105-.927-.167-1.402-.171-.382-.004-.634.324-.643.603-.012.362.259.653.617.674.352.02.701.042,1.048.119.326.072.641.17.947.298.413.173.796.399,1.149.674.226.175.465.198.732.117.299-.092.607-.142.921-.154.189-.007.369.041.553.064.321.04.621.146.904.294.805.42,1.333,1.073,1.62,1.934.214.642.436,1.282.683,1.912.4,1.024.918,1.987,1.553,2.886.05.071.113.139.151.265-.168-.101-.261-.223-.371-.324-.486-.449-1.051-.665-1.715-.589-.093.011-.165-.008-.236-.072-.123-.112-.26-.205-.405-.286-.416-.233-.862-.34-1.336-.34-2.584,0-5.169,0-7.753,0-.067,0-.133,0-.2.005-.514.043-.989.195-1.401.514-.663.515-.996,1.198-1.007,2.033-.009.759-.001,1.519-.002,2.278,0,.3.024.6.066.896.071.494.199.975.382,1.441.281.719.678,1.367,1.189,1.944.439.494.94.917,1.509,1.256.185.11.182.117.114.315-.122.353-.343.622-.659.823-.184.118-.348.13-.53,0-.14-.101-.277-.205-.407-.319-.224-.197-.472-.261-.753-.115-.207.107-.432.178-.659.22-.551.103-1.092.037-1.595-.208-1.039-.507-1.568-1.575-1.435-2.641.047-.375-.079-.604-.42-.773-.639-.315-1.043-.824-1.162-1.524-.115-.675.071-1.28.546-1.783.255-.27.518-.533.782-.794.741-.734,1.269-1.6,1.586-2.592.218-.684.298-1.39.3-2.106,0-.313.005-.626.029-.938.042-.548.188-1.072.407-1.575.138-.318.306-.618.505-.902.102-.146.157-.304.144-.487-.028-.389-.426-.655-.801-.547-.204.059-.325.195-.435.356-.364.537-.648,1.113-.838,1.734-.134.439-.225.887-.268,1.346-.041.446-.025.892-.035,1.338-.01.482-.092.951-.235,1.41-.217.695-.57,1.315-1.069,1.846-.282.301-.569.596-.863.885-.621.611-.989,1.337-1.058,2.212-.037.459.02.907.171,1.336.247.702.675,1.275,1.305,1.684.081.052.114.115.112.213-.005.226.016.449.059.674.168.89.595,1.627,1.272,2.223.169.149.359.27.581.429-.146.025-.243.048-.341.058-.518.051-1.016.176-1.502.367-.652.256-1.23.624-1.742,1.097-.697.644-1.198,1.42-1.503,2.317-.143.421-.238.855-.271,1.303-.044.606-.023,1.212-.024,1.817,0,.352.021.701.098,1.049.201.908.666,1.645,1.4,2.207.685.525,1.461.788,2.334.788,7.466-.005,14.933-.003,22.399-.002.314,0,.62-.035.927-.113.418-.107.806-.274,1.16-.514.933-.633,1.502-1.505,1.669-2.625.111-.741.021-1.46-.295-2.143Zm-5.807-14.015c.109.097.217.196.326.292.645.567.849,1.426.583,2.255-.128.4-.329.751-.657,1.022-.015.013-.028.028-.044.04-.221.168-.232.167-.383-.065-.103-.158-.244-.266-.425-.305-.117-.025-.152-.073-.142-.188.036-.39.063-.782.097-1.173.028-.318.069-.635.088-.953.031-.546-.067-1.07-.292-1.57-.038-.084-.07-.171-.104-.257.327.292.625.611.952.901Zm-3.746-1.725c.178-.001.352.037.481.16.327.311.678.598.961.953.334.418.482.896.454,1.429-.027.518-.06,1.036-.124,1.552-.043.35-.069.703-.077,1.055-.006.262-.095.422-.353.523-.395.155-.773.352-1.158.531-.023.011-.05.013-.081.021-.096-.17-.111-.357-.137-.54-.078-.572-.02-1.142.032-1.713.02-.219.037-.438.054-.657.009-.122-.02-.238-.062-.351-.181-.485-.363-.97-.543-1.455-.065-.174-.138-.344-.188-.524-.138-.507.215-.979.741-.983Zm-1.266,9.096c-.258.163-.527.306-.825.383-.039.01-.078.018-.094.021-.087.008-.14-.02-.187-.058-.255-.207-.423-.474-.526-.783-.031-.093-.021-.168.086-.231.394-.233.766-.499,1.099-.817.089-.085.118-.073.161.044.133.361.269.721.399,1.083.08.221.076.239-.112.358Zm-8.917-3.027c-.474-.604-.804-1.275-.982-2.027-.096-.406-.131-.814-.137-1.225-.011-.726-.003-1.451-.003-2.177,0-.38.096-.723.388-.988.197-.178.418-.304.691-.315.14-.006.279-.018.419-.018,1.245-.001,2.49,0,3.735,0,1.225,0,2.45,0,3.675.001.159,0,.319.014.478.024.046.003.093.01.138.022.187.052.198.08.091.237-.357.52-.449,1.092-.297,1.694.081.32.219.626.335.937.123.33.247.659.376.986.033.085.038.169.031.254-.027.325-.057.65-.086.974-.008.093-.03.187-.023.278.017.21-.06.39-.157.567-.529.965-1.274,1.707-2.262,2.199-.436.217-.892.367-1.371.462-.569.112-1.139.111-1.708.043-.415-.05-.82-.167-1.208-.329-.843-.352-1.558-.877-2.123-1.598Zm6.519,4.14c-.312.253-.661.444-1.034.588-.45.174-.922.252-1.382.261-.906-.014-1.705-.279-2.414-.81-.032-.024-.061-.051-.093-.075-.071-.053-.083-.1-.018-.177.167-.199.303-.42.403-.661.005-.012.014-.022.021-.034.045-.086.024-.223.121-.26.089-.034.185.051.283.07.306.061.608.129.919.168.305.038.609.064.915.052.432-.017.86-.065,1.28-.175.147-.039.301-.05.442-.115.064-.029.088.005.119.06.065.117.092.248.155.366.094.177.196.346.318.505.096.125.097.13-.034.236Zm4.197,9.606c-.143.039-.285.058-.432.057-.619-.003-1.237-.001-1.856-.001-.632,0-1.264,0-1.896,0-.053,0-.106-.001-.16-.001-.064,0-.1-.03-.098-.096,0-.04-.001-.08.002-.12.056-.616.11-1.232.169-1.847.015-.16.023-.159.174-.185.171-.029.342-.047.516-.047.393,0,.781-.07,1.175-.062.768.015,1.52.121,2.254.354.246.078.474.167.639.375.469.589.152,1.397-.488,1.573Zm1.207-2.674c-.354-.301-.776-.455-1.216-.571-.243-.064-.488-.122-.733-.179-.071-.017-.145-.017-.217-.031-.625-.123-1.256-.12-1.889-.118-.348,0-.688.072-1.035.077-.027,0-.053.002-.08.003-.164.001-.165.001-.174-.161-.011-.202-.083-.374-.241-.506-.116-.097-.252-.148-.4-.157-.292-.018-.587-.03-.876-.068-.561-.074-1.128-.073-1.688-.158-.302-.046-.611-.035-.916-.069-.668-.075-1.339-.121-2.008-.176-.623-.051-1.245-.119-1.87-.155-.558-.032-1.114-.092-1.67-.151-.344-.037-.69-.048-1.035-.081-.356-.034-.586.175-.671.451-.093.301.052.611.334.757.061.032.125.043.191.052.443.055.887.095,1.332.119.305.017.608.067.914.084.671.037,1.339.109,2.008.17.576.053,1.155.076,1.729.156.322.045.65.044.975.077.675.068,1.352.121,2.028.179.126.011.253.009.379.02.128.011.151.04.137.165-.048.423-.058.85-.103,1.273-.053.503-.087,1.007-.122,1.512-.014.195-.042.214-.253.214-2.051.001-4.102.002-6.154.003-1.552,0-3.103.004-4.655-.002-.704-.003-1.331-.222-1.842-.724-.503-.494-.766-1.094-.771-1.802-.003-.506,0-1.012-.004-1.518-.007-.817.191-1.58.612-2.281.39-.651.916-1.164,1.577-1.541.48-.274.994-.445,1.536-.528.243-.037.49-.042.734-.077.263-.037.533-.03.795-.07.526-.08,1.06-.082,1.586-.169.288-.048.584-.04.875-.075.323-.039.65-.05.969-.121.097-.022.195-.045.288-.078.096-.034.16-.004.231.062.449.413.954.74,1.518.975.406.169.824.284,1.261.352.278.043.554.06.834.061.435.001.856-.076,1.277-.181.562-.14,1.073-.383,1.555-.695.223-.144.435-.304.627-.489.076-.074.155-.099.253-.063.442.164.908.192,1.371.231.212.018.417.084.632.086.096,0,.124.091.151.165.163.442.324.885.487,1.327.247.673.496,1.345.743,2.018.235.642.467,1.286.701,1.928.057.156.119.309.176.465.024.067.041.137.068.226-.126-.052-.181-.147-.26-.213Zm1.224,2.729c-.179.004-.359.001-.538,0-.06,0-.117-.02-.087-.093.125-.301.198-.612.2-.944.189.354.388.694.65.991-.079.072-.156.044-.225.045Zm3.71-.079c-1.244.318-2.534-.391-2.961-1.538-.255-.684-.506-1.371-.759-2.056-.31-.84-.623-1.68-.931-2.52-.318-.866-.632-1.734-.95-2.6-.345-.941-.694-1.88-1.041-2.82-.041-.112-.086-.223-.127-.335-.046-.126-.032-.161.09-.219.318-.15.637-.297.955-.446.523-.244,1.046-.488,1.569-.732.024-.011.047-.025.071-.036.145-.064.172-.054.252.086.178.31.357.62.535.931.813,1.418,1.627,2.835,2.44,4.253.812,1.417,1.623,2.835,2.435,4.252.233.406.355.842.369,1.259-.036,1.242-.765,2.219-1.949,2.522ZM2.485,1.321c.548.173.874.812.564,1.378-.099.182-.269.288-.419.418-.397.343-.574.774-.472,1.298.043.221.112.437.168.656.073.286.304.493.57.51.468.031.788-.36.674-.825-.035-.142-.068-.284-.117-.422-.052-.149-.007-.238.118-.333.507-.384.805-.9.872-1.532C4.592,1.059,3.428-.019,2.245.01c-.501-.015-.935.143-1.331.426C.195.951-.18,1.928.085,2.822c.121.41.617.585.968.341.257-.179.326-.428.259-.72-.178-.77.595-1.304,1.173-1.122Zm25.383,1.012c.24.169.501.171.744.006.133-.09.206-.221.256-.37.186-.562.74-.821,1.276-.607.35.14.547.432.574.802.027.362-.127.655-.437.863-.168.112-.359.14-.547.168-.571.083-.94.4-1.122.94-.068.201-.126.406-.174.613-.034.149-.046.303.024.45.12.251.314.39.598.384.283-.006.47-.148.581-.406.079-.185.101-.385.166-.573.033-.095.066-.147.174-.151.202-.006.397-.065.581-.136.878-.338,1.454-1.175,1.431-2.079.024-.648-.301-1.286-.734-1.661-.644-.557-1.38-.717-2.193-.448-.745.246-1.207.774-1.433,1.513-.08.26.028.545.237.692ZM2.897,7.106c.003.357.252.632.655.636.345.004.627-.307.618-.652-.008-.347-.306-.638-.644-.631-.381.034-.631.294-.629.647ZM10.959,2.717c.361-.002.629-.27.631-.628.001-.362-.283-.642-.647-.637-.342.005-.63.3-.626.643.004.349.288.625.642.623Zm17.506,3.748c-.309,0-.636.256-.624.642-.01.367.284.639.626.637.375-.003.645-.275.638-.649-.007-.404-.325-.629-.64-.63Zm-14.193,9.685c.16.47.708.535.994.301.067-.055.131-.113.203-.159.266-.17.543-.214.851-.108.178.061.302.187.448.288.206.142.428.147.643.044.227-.108.349-.3.348-.591.016-.164-.066-.323-.202-.449-.63-.587-1.369-.751-2.194-.536-.346.09-.644.277-.902.522-.197.188-.282.418-.19.687Zm4.033-2.945c.341-.005.634-.294.639-.637.005-.292-.238-.645-.653-.637-.355.007-.625.284-.622.641.003.349.289.634.636.632Zm-3.975-.637c.024-.353-.283-.638-.619-.637-.355,0-.638.271-.644.622-.005.354.287.653.638.652.352,0,.624-.278.625-.637Z"/></svg>