<?xml version="1.0" encoding="utf-8"?>
<!-- Generator: Adobe Illustrator 27.2.0, SVG Export Plug-In . SVG Version: 6.00 Build 0)  -->
<svg version="1.1" id="Layer_1" xmlns="http://www.w3.org/2000/svg" xmlns:xlink="http://www.w3.org/1999/xlink" x="0px" y="0px"
	 viewBox="0 0 88 76" style="enable-background:new 0 0 88 76;" xml:space="preserve">
<style type="text/css">
	.st0{fill:#96E8E2;}
</style>
<path class="st0" d="M69.1,0c5.3,0,9.7,2.1,13.3,6.4c3.8,4.1,5.6,9.5,5.6,16.3c0,9.5-3.2,19.4-9.5,29.7S64.2,70.6,54.5,76l-7.4-15.5
	c4.3-3.7,7.9-7.2,11-10.4c3.1-3.4,5.2-7.8,6.4-13.2c-3.1,0-6.2-1.9-9.5-5.6s-4.9-7.9-4.9-12.5c0-4.4,1.8-8.6,5.4-12.7
	C59.3,2.1,63.8,0,69.1,0z M21.5,0c5.3,0,9.8,2.1,13.6,6.4C39,10.5,41,15.9,41,22.7c0,9.5-3.2,19.4-9.7,29.7C25,62.7,17,70.6,7.3,76
	L0,60.5c4.3-3.7,7.8-7.2,10.7-10.4c3.1-3.4,5.2-7.8,6.4-13.2c-2.9,0-6.1-1.9-9.5-5.6c-3.2-3.7-4.9-7.9-4.9-12.5
	c0-4.4,1.8-8.6,5.4-12.7C11.8,2.1,16.2,0,21.5,0z"/>
</svg>
